HIERARCHY
ROOT hip
{
  OFFSET 0 0 0
  CHANNELS 6 Xposition Yposition Zposition Zrotation Yrotation Xrotation
  JOINT abdomen
  {
    OFFSET 0 20.6881 -0.73152
    CHANNELS 3 Zrotation Xrotation Yrotation
    JOINT chest
    {
      OFFSET 0 11.7043 -0.48768
      CHANNELS 3 Zrotation Xrotation Yrotation
      JOINT neck
      {
        OFFSET 0 22.1894 -2.19456
        CHANNELS 3 Zrotation Xrotation Yrotation
        JOINT head
        {
          OFFSET -0.24384 7.07133 1.2192
          CHANNELS 3 Zrotation Xrotation Yrotation
          JOINT leftEye
          {
            OFFSET 4.14528 8.04674 8.04672
            CHANNELS 3 Zrotation Xrotation Yrotation
            End Site
            {
              OFFSET 1 0 0
            }
          }
          JOINT rightEye
          {
            OFFSET -3.6576 8.04674 8.04672
            CHANNELS 3 Zrotation Xrotation Yrotation
            End Site
            {
              OFFSET 1 0 0
            }
          }
        }
      }
      JOINT rCollar
      {
        OFFSET -2.68224 19.2634 -4.8768
        CHANNELS 3 Zrotation Xrotation Yrotation
        JOINT rShldr
        {
          OFFSET -8.77824 -1.95073 1.46304
          CHANNELS 3 Zrotation Xrotation Yrotation
          JOINT rForeArm
          {
            OFFSET -28.1742 -1.7115 0.48768
            CHANNELS 3 Zrotation Xrotation Yrotation
            JOINT rHand
            {
              OFFSET -22.5879 0.773209 7.07136
              CHANNELS 3 Zrotation Xrotation Yrotation
              JOINT rThumb1
              {
                OFFSET -1.2192 -0.487915 3.41376
                CHANNELS 3 Zrotation Xrotation Yrotation
                JOINT rThumb2
                {
                  OFFSET -3.37035 -0.52449 3.41376
                  CHANNELS 3 Zrotation Xrotation Yrotation
                  End Site
                  {
                    OFFSET -1.78271 -1.18214 1.43049
                  }
                }
              }
              JOINT rIndex1
              {
                OFFSET -7.75947 0.938293 5.60832
                CHANNELS 3 Zrotation Xrotation Yrotation
                JOINT rIndex2
                {
                  OFFSET -2.54057 -0.884171 1.56538
                  CHANNELS 3 Zrotation Xrotation Yrotation
                  End Site
                  {
                    OFFSET -1.62519 -0.234802 1.16502
                  }
                }
              }
              JOINT rMid1
              {
                OFFSET -8.24714 1.18213 3.41376
                CHANNELS 3 Zrotation Xrotation Yrotation
                JOINT rMid2
                {
                  OFFSET -3.10165 -0.590103 1.0647
                  CHANNELS 3 Zrotation Xrotation Yrotation
                  End Site
                  {
                    OFFSET -2.48547 -0.328903 0.83742
                  }
                }
              }
              JOINT rRing1
              {
                OFFSET -8.82822 0.546677 1.51678
                CHANNELS 3 Zrotation Xrotation Yrotation
                JOINT rRing2
                {
                  OFFSET -2.60934 -0.819778 -0.0198488
                  CHANNELS 3 Zrotation Xrotation Yrotation
                  End Site
                  {
                    OFFSET -2.33842 -0.294052 0.168128
                  }
                }
              }
              JOINT rPinky1
              {
                OFFSET -8.27202 -0.0477905 -0.4584
                CHANNELS 3 Zrotation Xrotation Yrotation
                JOINT rPinky2
                {
                  OFFSET -1.82734 -0.647385 -0.700984
                  CHANNELS 3 Zrotation Xrotation Yrotation
                  End Site
                  {
                    OFFSET -1.69225 -0.51767 -0.607171
                  }
                }
              }
            }
          }
        }
      }
      JOINT lCollar
      {
        OFFSET 2.68224 19.2634 -4.8768
        CHANNELS 3 Zrotation Xrotation Yrotation
        JOINT lShldr
        {
          OFFSET 8.77824 -1.95073 1.46304
          CHANNELS 3 Zrotation Xrotation Yrotation
          JOINT lForeArm
          {
            OFFSET 28.1742 -1.7115 0.48768
            CHANNELS 3 Zrotation Xrotation Yrotation
            JOINT lHand
            {
              OFFSET 22.5879 0.773209 7.07136
              CHANNELS 3 Zrotation Xrotation Yrotation
              JOINT lThumb1
              {
                OFFSET 1.2192 -0.487915 3.41376
                CHANNELS 3 Zrotation Xrotation Yrotation
                JOINT lThumb2
                {
                  OFFSET 3.37035 -0.52449 3.41376
                  CHANNELS 3 Zrotation Xrotation Yrotation
                  End Site
                  {
                    OFFSET 1.78271 -1.18214 1.43049
                  }
                }
              }
              JOINT lIndex1
              {
                OFFSET 7.75947 0.938293 5.60832
                CHANNELS 3 Zrotation Xrotation Yrotation
                JOINT lIndex2
                {
                  OFFSET 2.54057 -0.884171 1.56538
                  CHANNELS 3 Zrotation Xrotation Yrotation
                  End Site
                  {
                    OFFSET 1.62519 -0.234802 1.16502
                  }
                }
              }
              JOINT lMid1
              {
                OFFSET 8.24714 1.18213 3.41376
                CHANNELS 3 Zrotation Xrotation Yrotation
                JOINT lMid2
                {
                  OFFSET 3.10165 -0.590103 1.0647
                  CHANNELS 3 Zrotation Xrotation Yrotation
                  End Site
                  {
                    OFFSET 2.48547 -0.328903 0.83742
                  }
                }
              }
              JOINT lRing1
              {
                OFFSET 8.82822 0.546677 1.51678
                CHANNELS 3 Zrotation Xrotation Yrotation
                JOINT lRing2
                {
                  OFFSET 2.60934 -0.819778 -0.0198488
                  CHANNELS 3 Zrotation Xrotation Yrotation
                  End Site
                  {
                    OFFSET 2.33842 -0.294052 0.168128
                  }
                }
              }
              JOINT lPinky1
              {
                OFFSET 8.27202 -0.0477905 -0.4584
                CHANNELS 3 Zrotation Xrotation Yrotation
                JOINT lPinky2
                {
                  OFFSET 1.82734 -0.647385 -0.700984
                  CHANNELS 3 Zrotation Xrotation Yrotation
                  End Site
                  {
                    OFFSET 1.69225 -0.51767 -0.607171
                  }
                }
              }
            }
          }
        }
      }
    }
  }
  JOINT rButtock
  {
    OFFSET -8.77824 4.35084 1.2192
    CHANNELS 3 Zrotation Xrotation Yrotation
    JOINT rThigh
    {
      OFFSET 0 -1.70687 -2.19456
      CHANNELS 3 Zrotation Xrotation Yrotation
      JOINT rShin
      {
        OFFSET 0 -36.8199 0.73152
        CHANNELS 3 Zrotation Xrotation Yrotation
        JOINT rFoot
        {
          OFFSET 0.73152 -45.1104 -5.12064
          CHANNELS 3 Zrotation Xrotation Yrotation
          End Site
          {
            OFFSET -1.1221 -3.69964 12.103
          }
        }
      }
    }
  }
  JOINT lButtock
  {
    OFFSET 8.77824 4.35084 1.2192
    CHANNELS 3 Zrotation Xrotation Yrotation
    JOINT lThigh
    {
      OFFSET 0 -1.70687 -2.19456
      CHANNELS 3 Zrotation Xrotation Yrotation
      JOINT lShin
      {
        OFFSET 0 -36.8199 0.73152
        CHANNELS 3 Zrotation Xrotation Yrotation
        JOINT lFoot
        {
          OFFSET -0.73152 -45.1104 -5.12064
          CHANNELS 3 Zrotation Xrotation Yrotation
          End Site
          {
            OFFSET 1.1221 -3.69964 12.103
          }
        }
      }
    }
  }
}
MOTION
Frames:	4
Frame Time:	0.00833333
53.9305 85.1388 193.732 0.0 0.0 0.0 0.41059 -0.00336424 0.0117806 0.113459 -0.0053952 0.0196593 -5.03436e-15 -7.95139e-16 -3.72721e-17 -1.52008e-14 3.18055e-15 -1.0871e-16 -0.0 0.0 0.0 -0.0 0.0 0.0 -2.48614e-15 1.3977e-17 1.49089e-16 -5.17354e-14 4.16205e-16 1.98785e-16 -9.12123e-13 2.8943e-13 2.22639e-14 -1.048e-11 -2.0286e-13 -1.04958e-13 -2.47151e-11 1.86553e-13 -1.7175e-13 -4.2693e-11 3.21236e-13 -2.95792e-13 -2.47077e-11 1.87653e-13 -1.78111e-13 7.73091 5.47488 0.417314 -2.4715e-11 1.8646e-13 -1.65389e-13 2.90554 0.965183 0.102902 -2.4701e-11 1.87355e-13 -1.70955e-13 10.2786 0.731801 0.0259123 -2.47225e-11 1.8805e-13 -1.62208e-13 2.22167 -0.733487 -0.20892 -2.58304e-15 1.3977e-17 -1.49089e-16 -5.52461e-14 2.11209e-16 -1.39149e-15 -9.19528e-13 -2.61998e-13 -3.18055e-15 -1.04732e-11 3.32244e-13 -6.99722e-14 -2.47107e-11 1.5384e-13 -1.74931e-13 -4.26707e-11 2.60805e-13 -2.94201e-13 -2.47129e-11 1.52269e-13 -1.65389e-13 -7.73091 5.47488 -0.417314 -2.47119e-11 1.54058e-13 -1.74931e-13 -2.90554 0.965183 -0.102902 -2.47178e-11 1.53959e-13 -1.68569e-13 -10.2786 0.731801 -0.0259123 -2.47083e-11 1.54257e-13 -1.74931e-13 -2.22167 -0.733487 0.20892 -2.03217e-16 0.0 -3.88251e-19 0.770607 -4.17183 -0.0656816 -0.00265489 2.00555 -0.0182704 -0.461832 2.16687 0.0961012 2.03217e-16 0.0 3.88251e-19 -0.143232 -2.55995 0.0260684 0.00716319 -0.91409 0.0621717 0.453771 3.47457 -0.121225
54.1966 83.3585 187.241 178.186 -2.2385 -157.152 -1.41857 -7.78881 -0.67642 0.903197 3.78714 -0.252648 -1.18925 4.30436 -0.00258229 2.78959 -5.57616 0.299621 -0.0 0.0 0.0 -0.0 0.0 0.0 -8.09693e-15 -3.91132e-14 -2.44688e-14 22.6451 1.55869 -1.08941 -4.08257 -1.82849 6.40505 0.00168559 0.920834 0.129356 4.06926e-10 -7.28793e-10 8.71328e-10 7.07034e-10 -1.2616e-09 1.50541e-09 4.06935e-10 -7.28792e-10 8.71319e-10 7.73091 5.47488 0.417314 4.06927e-10 -7.28792e-10 8.71331e-10 2.90554 0.965183 0.102902 4.06936e-10 -7.28792e-10 8.71329e-10 10.2786 0.731801 0.0259123 4.0692e-10 -7.28791e-10 8.71338e-10 2.22167 -0.733487 -0.20892 -8.14028e-15 -3.91129e-14 -2.4758e-14 -21.2704 0.700393 -0.180024 1.71764 -0.568417 -2.86883 -0.0968888 6.92188 -0.947456 9.28312e-10 -3.88079e-11 -7.91621e-10 1.58728e-09 -7.15421e-11 -1.3864e-09 9.28311e-10 -3.88066e-11 -7.9161e-10 -7.73091 5.47488 -0.417314 9.28312e-10 -3.88048e-11 -7.91619e-10 -2.90554 0.965183 -0.102902 9.28306e-10 -3.88052e-11 -7.91615e-10 -10.2786 0.731801 -0.0259123 9.28314e-10 -3.88048e-11 -7.91621e-10 -2.22167 -0.733487 0.20892 -2.03217e-16 0.0 -3.88251e-19 0.545507 -10.6645 1.95278 0.00487026 4.72444 0.0538441 -0.658376 -3.06793 -1.95871 2.03217e-16 0.0 3.88251e-19 -0.248194 -9.33089 -3.01704 0.00570164 2.29965 0.00705609 0.48723 1.01266 0.619465
54.2656 83.3741 187.142 178.168 -2.4609 -157.338 -3.59003 -16.0169 -1.45276 1.78449 7.79849 -0.545116 -2.44746 8.854 -0.00445307 5.80409 -11.458 0.625723 -0.0 0.0 0.0 -0.0 0.0 0.0 -1.55701e-14 -8.73598e-14 -5.2445e-14 46.6487 3.21266 -2.24308 -7.96063 -3.68785 13.2027 -0.0010975 1.90998 0.268424 9.07388e-10 -1.55836e-09 1.86349e-09 1.57618e-09 -2.69762e-09 3.2195e-09 9.074e-10 -1.55836e-09 1.86348e-09 7.73091 5.47488 0.417314 9.07389e-10 -1.55836e-09 1.86349e-09 2.90554 0.965183 0.102902 9.07394e-10 -1.55836e-09 1.86349e-09 10.2786 0.731801 0.0259123 9.07384e-10 -1.55836e-09 1.8635e-09 2.22167 -0.733487 -0.20892 -1.55531e-14 -8.73591e-14 -5.27276e-14 -43.7527 1.40587 -0.36497 3.46686 -1.16248 -5.89453 0.0572092 14.2716 -2.00161 2.026e-09 -8.01125e-11 -1.67798e-09 3.4652e-09 -1.47953e-10 -2.93919e-09 2.02601e-09 -8.0108e-11 -1.67797e-09 -7.73091 5.47488 -0.417314 2.02601e-09 -8.01061e-11 -1.67797e-09 -2.90554 0.965183 -0.102902 2.026e-09 -8.01069e-11 -1.67797e-09 -10.2786 0.731801 -0.0259123 2.02601e-09 -8.01065e-11 -1.67798e-09 -2.22167 -0.733487 0.20892 -2.03217e-16 0.0 -3.88251e-19 0.803682 -17.4939 4.20791 0.0053616 7.59497 0.13077 -1.27775 -8.58431 -4.16957 2.03217e-16 0.0 3.88251e-19 -1.19474 -16.4129 -6.43399 0.0108683 5.6947 -0.0514534 0.593325 -1.58886 1.41886
54.2043 83.2505 187.414 178.275 -2.1079 -156.566 -5.6802 -23.3457 -2.21557 2.59263 11.3712 -0.811539 -3.56657 12.9131 -0.00792544 8.55031 -16.7266 0.934138 -0.0 0.0 0.0 -0.0 0.0 0.0 -1.93185e-14 -1.17367e-13 -7.37045e-14 68.1135 4.6693 -3.27792 -11.0426 -5.21181 19.2882 -0.00742928 2.76245 0.388471 1.27021e-09 -2.18675e-09 2.61433e-09 2.20649e-09 -3.78545e-09 4.51681e-09 1.27022e-09 -2.18675e-09 2.61431e-09 7.73091 5.47488 0.417314 1.27021e-09 -2.18675e-09 2.61432e-09 2.90554 0.965183 0.102902 1.27021e-09 -2.18675e-09 2.61433e-09 10.2786 0.731801 0.0259123 1.2702e-09 -2.18675e-09 2.61434e-09 2.22167 -0.733487 -0.20892 -1.92548e-14 -1.17367e-13 -7.39759e-14 -63.7979 2.10109 -0.540394 4.98282 -1.68816 -8.60984 0.436262 20.7421 -3.01739 2.83436e-09 -1.16731e-10 -2.37451e-09 4.84719e-09 -2.15148e-10 -4.1586e-09 2.83436e-09 -1.16724e-10 -2.3745e-09 -7.73091 5.47488 -0.417314 2.83436e-09 -1.16722e-10 -2.37451e-09 -2.90554 0.965183 -0.102902 2.83435e-09 -1.16723e-10 -2.37451e-09 -10.2786 0.731801 -0.0259123 2.83436e-09 -1.16723e-10 -2.37451e-09 -2.22167 -0.733487 0.20892 -2.03217e-16 0.0 -3.88251e-19 1.57572 -23.5355 6.42455 -0.000898014 10.1622 0.20065 -2.20071 -13.4658 -6.23174 2.03217e-16 0.0 3.88251e-19 -2.76267 -22.6142 -9.73856 0.0214498 8.7271 -0.104385 0.745229 -3.90836 2.10501
